<svg xmlns="http://www.w3.org/2000/svg" width="1200" height="420" viewBox="0 0 1200 420" role="img" aria-labelledby="title desc">
  <title id="title">UserContext</title>
  <desc id="desc">CONTEXT</desc>
  <defs>
    <radialGradient id="bg" cx="0.32" cy="0.42" r="0.95" gradientUnits="userSpaceOnUse">
      <stop offset="0" stop-color="#15101F"/>
      <stop offset="0.55" stop-color="#0C0F16"/>
      <stop offset="1" stop-color="#0B0E11"/>
    </radialGradient>
    <linearGradient id="acc" x1="0" y1="0" x2="1" y2="0">
      <stop offset="0" stop-color="#7C5CFF"/>
      <stop offset="1" stop-color="#9B7BFF"/>
    </linearGradient>
    <linearGradient id="panel" x1="0" y1="0" x2="0" y2="1">
      <stop offset="0" stop-color="#161B26"/>
      <stop offset="1" stop-color="#10131B"/>
    </linearGradient>
  </defs>
  <rect width="1200" height="420" fill="url(#bg)"/>
  <rect x="598" y="56" width="1" height="312" fill="#222838"/>
  <text x="64" y="74" font-family="-apple-system,BlinkMacSystemFont,Segoe UI,sans-serif" font-size="12" letter-spacing="3" fill="#7C5CFF">CONTEXT</text>
  <text x="62" y="128" font-family="-apple-system,BlinkMacSystemFont,Segoe UI,sans-serif" font-size="50" font-weight="700" fill="#F4F6FB">UserContext</text>
  <rect x="64" y="146" width="52" height="4" rx="2" fill="url(#acc)"/>
<text x="64" y="176" font-family="-apple-system,BlinkMacSystemFont,Segoe UI,sans-serif" font-size="17" fill="#C7CEDB">Daily context generator</text>
<text x="64" y="204" font-family="-apple-system,BlinkMacSystemFont,Segoe UI,sans-serif" font-size="17" fill="#C7CEDB">for the owner's USER.md</text>
<defs><marker id="ah2" markerWidth="10" markerHeight="10" refX="7" refY="3" orient="auto"><path d="M0 0 L7 3 L0 6 Z" fill="#7C5CFF"/></marker></defs><rect x="640" y="200" width="150" height="60" rx="10" fill="url(#panel)" stroke="#2A3350"/>
<rect x="650" y="188" width="150" height="60" rx="10" fill="url(#panel)" stroke="#2A3350"/>
<rect x="660" y="176" width="150" height="60" rx="10" fill="url(#panel)" stroke="#2A3350"/>
<path d="M810 200 L890 200" stroke="#7C5CFF" stroke-width="3" marker-end="url(#ah2)"/><rect x="900" y="90" width="220" height="240" rx="14" fill="url(#panel)" stroke="#2A3350"/><rect x="900" y="90" width="220" height="8" rx="4" fill="url(#acc)"/><rect x="922" y="128" width="176" height="10" rx="5" fill="#1C2230"/>
<rect x="922" y="168" width="176" height="10" rx="5" fill="#1C2230"/>
<rect x="922" y="208" width="176" height="10" rx="5" fill="#1C2230"/>
<rect x="922" y="248" width="176" height="10" rx="5" fill="#1C2230"/>
<rect x="922" y="288" width="176" height="10" rx="5" fill="#1C2230"/>

</svg>